<svg width="21" height="23" viewBox="0 0 21 23" fill="none" xmlns="http://www.w3.org/2000/svg">
<path d="M3.8584 10.5938L20.7285 17.4297V22.2148L0.757812 12.9619V10.1543L3.8584 10.5938ZM20.7285 4.97852L3.88281 11.9121L0.757812 12.2539V9.42188L20.7285 0.193359V4.97852Z" fill="#EBA63F"/>
<path d="M3.8584 10.5938L4.23395 9.66695L4.12022 9.62086L3.99873 9.60365L3.8584 10.5938ZM20.7285 17.4297H21.7285V16.7559L21.1041 16.5029L20.7285 17.4297ZM20.7285 22.2148L20.3081 23.1222L21.7285 23.7803V22.2148H20.7285ZM0.757812 12.9619H-0.242188V13.6007L0.337418 13.8693L0.757812 12.9619ZM0.757812 10.1543L0.898142 9.16419L-0.242188 9.00257V10.1543H0.757812ZM20.7285 4.97852L21.1091 5.90325L21.7285 5.64831V4.97852H20.7285ZM3.88281 11.9121L3.99154 12.9062L4.1324 12.8908L4.26343 12.8368L3.88281 11.9121ZM0.757812 12.2539H-0.242188V13.3692L0.866539 13.248L0.757812 12.2539ZM0.757812 9.42188L0.338332 8.51411L-0.242188 8.78237V9.42188H0.757812ZM20.7285 0.193359H21.7285V-1.37035L20.309 -0.714405L20.7285 0.193359ZM3.48285 11.5206L20.353 18.3565L21.1041 16.5029L4.23395 9.66695L3.48285 11.5206ZM19.7285 17.4297V22.2148H21.7285V17.4297H19.7285ZM21.1489 21.3075L1.17821 12.0546L0.337418 13.8693L20.3081 23.1222L21.1489 21.3075ZM1.75781 12.9619V10.1543H-0.242188V12.9619H1.75781ZM0.617483 11.1444L3.71807 11.5839L3.99873 9.60365L0.898142 9.16419L0.617483 11.1444ZM20.3479 4.05378L3.5022 10.9874L4.26343 12.8368L21.1091 5.90325L20.3479 4.05378ZM3.77409 10.918L0.649086 11.2598L0.866539 13.248L3.99154 12.9062L3.77409 10.918ZM1.75781 12.2539V9.42188H-0.242188V12.2539H1.75781ZM1.17729 10.3296L21.148 1.10112L20.309 -0.714405L0.338332 8.51411L1.17729 10.3296ZM19.7285 0.193359V4.97852H21.7285V0.193359H19.7285Z" fill="black"/>
</svg>
