<svg width="26" height="28" viewBox="0 0 26 28" fill="none" xmlns="http://www.w3.org/2000/svg">
<path d="M21.7852 14.4844L0.955078 6.36914V0.773438L25.9746 11.8477V15.2754L21.7852 14.4844ZM0.955078 21.6328L21.8438 13.3418L25.9746 12.7266V16.125L0.955078 27.2285V21.6328Z" fill="#EBA63F"/>
<path d="M21.7852 14.4844L21.4221 15.4162L21.5085 15.4498L21.5996 15.467L21.7852 14.4844ZM0.955078 6.36914H-0.0449219V7.05276L0.592063 7.30092L0.955078 6.36914ZM0.955078 0.773438L1.35983 -0.140991L-0.0449219 -0.762764V0.773438H0.955078ZM25.9746 11.8477H26.9746V11.1967L26.3794 10.9332L25.9746 11.8477ZM25.9746 15.2754L25.7891 16.258L26.9746 16.4819V15.2754H25.9746ZM0.955078 21.6328L0.586161 20.7034L-0.0449219 20.9538V21.6328H0.955078ZM21.8438 13.3418L21.6964 12.3527L21.5822 12.3697L21.4748 12.4123L21.8438 13.3418ZM25.9746 12.7266H26.9746V11.5666L25.8273 11.7375L25.9746 12.7266ZM25.9746 16.125L26.3803 17.039L26.9746 16.7753V16.125H25.9746ZM0.955078 27.2285H-0.0449219V28.7664L1.36072 28.1425L0.955078 27.2285ZM22.1482 13.5526L1.31809 5.43736L0.592063 7.30092L21.4221 15.4162L22.1482 13.5526ZM1.95508 6.36914V0.773438H-0.0449219V6.36914H1.95508ZM0.550331 1.68787L25.5699 12.7621L26.3794 10.9332L1.35983 -0.140991L0.550331 1.68787ZM24.9746 11.8477V15.2754H26.9746V11.8477H24.9746ZM26.1601 14.2928L21.9707 13.5017L21.5996 15.467L25.7891 16.258L26.1601 14.2928ZM1.324 22.5623L22.2127 14.2713L21.4748 12.4123L0.586161 20.7034L1.324 22.5623ZM21.9911 14.3309L26.1219 13.7157L25.8273 11.7375L21.6964 12.3527L21.9911 14.3309ZM24.9746 12.7266V16.125H26.9746V12.7266H24.9746ZM25.569 15.211L0.549436 26.3145L1.36072 28.1425L26.3803 17.039L25.569 15.211ZM1.95508 27.2285V21.6328H-0.0449219V27.2285H1.95508Z" fill="#212221"/>
</svg>
